Coordinates
version=1
nRows=9
nColumns=24
inDegrees=yes

Units are S.I. units (second, meters, Newtons, ...)
Angles are in degrees.

endheader
time	pelvis_tilt	pelvis_list	pelvis_rotation	pelvis_tx	pelvis_ty	pelvis_tz	hip_flexion_r	hip_adduction_r	hip_rotation_r	knee_angle_r	ankle_angle_r	subtalar_angle_r	mtp_angle_r	hip_flexion_l	hip_adduction_l	hip_rotation_l	knee_angle_l	ankle_angle_l	subtalar_angle_l	mtp_angle_l	lumbar_extension	lumbar_bending	lumbar_rotation
      4.13000000	    -14.11320301	     11.39810003	     -9.51633242	     -0.73957609	     -0.01996418	      0.02616983	     19.47508846	    -17.00784886	     -0.07475832	    -57.56325023	    -24.89374184	     13.71393435	     36.64847518	     28.05984080	      9.17172940	    -18.47856782	    -12.17191892	    -10.30924425	      3.84308435	     10.52578394	     14.16989338	    -11.35348040	      8.23867552
      4.13500000	    -13.97533910	     11.28659030	     -9.34483097	     -0.73389403	     -0.01890186	      0.02535639	     19.95941711	    -16.85248682	      0.05976125	    -58.23964626	    -24.48537152	     14.20730625	     37.53255439	     27.37677928	      9.34925938	    -18.27795334	    -11.90137079	     -9.85104962	      4.22521396	     10.00726294	     13.99731912	    -11.30855728	      7.89885567
      4.14000000	    -13.94001048	     11.11977259	     -9.11167492	     -0.72819616	     -0.01795961	      0.02451717	     20.51543995	    -16.62479404	      0.13065181	    -58.89406926	    -24.03610980	     14.80668991	     38.00152054	     26.79095907	      9.46701164	    -17.99345327	    -11.59128320	     -9.63974630	      4.39512280	     10.11655929	     13.92466896	    -11.20485108	      7.51518214
      4.14500000	    -13.78720742	     10.98136789	     -8.88603518	     -0.72252814	     -0.01688478	      0.02362251	     20.93137960	    -16.45808267	      0.18573207	    -59.41355301	    -23.77165992	     15.25124587	     39.40414984	     26.06374071	      9.65630370	    -17.61055150	    -11.22558119	     -9.53816588	      4.33806873	     10.10036186	     13.72300587	    -11.14513850	      7.10300982
      4.15000000	    -13.76080861	     10.78170553	     -8.66408606	     -0.71688670	     -0.01598091	      0.02283925	     21.48065529	    -16.17092597	      0.26538704	    -59.96240986	    -23.35888651	     15.90646824	     39.87960883	     25.49366096	      9.71701802	    -17.32676196	    -10.93835765	     -9.31218489	      4.51193133	     10.19464244	     13.66178674	    -11.00291459	      6.73587476
      4.15500000	    -13.60869584	     10.62217502	     -8.40999608	     -0.71125290	     -0.01495996	      0.02193120	     21.86735366	    -15.98345174	      0.27777154	    -60.38687832	    -23.07530412	     16.37455166	     41.24727942	     24.77160989	      9.88503919	    -16.87039067	    -10.59878825	     -9.18854177	      4.41513721	     10.07013228	     13.45658026	    -10.92796953	      6.29665179
      4.16000000	    -13.55073086	     10.43278412	     -8.16106131	     -0.70565045	     -0.01408129	      0.02109970	     22.35855873	    -15.72440172	      0.31342319	    -60.81101049	    -22.71106090	     16.92929328	     42.16003238	     24.17000378	      9.97107673	    -16.50708459	    -10.31304851	     -8.98860467	      4.49539678	     10.04602670	     13.35811662	    -10.80572227	      5.89611675
      4.16500000	    -13.50757781	     10.21422775	     -7.95366714	     -0.70004721	     -0.01324251	      0.02034766	     22.86864614	    -15.40085398	      0.38925087	    -61.21872499	    -22.27183363	     17.54302524	     42.57672303	     23.58174931	      9.99723011	    -16.18354834	    -10.02876355	     -8.77072265	      4.57612033	     10.08593474	     13.29063456	    -10.63595622	      5.55852928
      4.17000000	    -13.41277598	     10.02550597	     -7.69133274	     -0.69449701	     -0.01236747	      0.01950009	     23.30657449	    -15.14986156	      0.41139188	    -61.56608597	    -21.86475543	     18.13293540	     43.16616331	     22.93627071	     10.08930202	    -15.75912161	     -9.72683690	     -8.62727332	      4.58100830	     10.01399488	     13.14944400	    -10.52432397	      5.11028743
